<?xml version="1.0" encoding="iso-8859-1"?>
<!-- Generator: Adobe Illustrator 19.0.0, SVG Export Plug-In . SVG Version: 6.00 Build 0)  -->
<svg version="1.1" id="Capa_1" xmlns="http://www.w3.org/2000/svg" xmlns:xlink="http://www.w3.org/1999/xlink" x="0px" y="0px"
	 viewBox="0 0 480 480" style="enable-background:new 0 0 480 480;" xml:space="preserve">
<path style="fill:#FFC67B;" d="M472,240c-0.053,110.51-89.682,200.053-200.192,200c-10.654-0.005-21.29-0.861-31.808-2.56
	c109.043-17.616,183.159-120.294,165.543-229.337C391.796,123.016,325.087,56.306,240,42.56
	c109.096-17.62,211.82,56.536,229.44,165.632C471.139,218.71,471.995,229.346,472,240z"/>
<path style="fill:#FFC477;" d="M208,440c110.457,0,200-89.543,200-200S318.457,40,208,40S8,129.543,8,240S97.543,440,208,440z
	 M208,72c92.784,0,168,75.216,168,168s-75.216,168-168,168S40,332.784,40,240C40.106,147.26,115.26,72.106,208,72z"/>
<path style="fill:#FFB655;" d="M208,408c92.784,0,168-75.216,168-168S300.784,72,208,72S40,147.216,40,240
	C40.106,332.74,115.26,407.894,208,408z M176,372.2c10.479,2.529,21.221,3.804,32,3.8C197.221,376.004,186.479,374.729,176,372.2z
	 M344,240c-0.038-49.845-27.314-95.685-71.104-119.496C316.686,144.315,343.962,190.155,344,240z M240,107.8
	c-10.479-2.529-21.221-3.804-32-3.8C218.779,103.996,229.521,105.271,240,107.8z M208,160v160V160l-36,36L208,160z M143.104,359.496
	C99.314,335.685,72.038,289.845,72,240C72.038,289.845,99.314,335.685,143.104,359.496z"/>
<g>
	<path style="fill:#231F20;" d="M208,416c-97.202,0-176-78.798-176-176S110.798,64,208,64s176,78.798,176,176
		C383.89,337.156,305.156,415.89,208,416z M208,80c-88.366,0-160,71.634-160,160s71.634,160,160,160s160-71.634,160-160
		C367.899,151.676,296.324,80.101,208,80z"/>
	<path style="fill:#231F20;" d="M344,248c-4.418,0-8-3.582-8-8c-0.033-46.919-25.712-90.067-66.936-112.472
		c-3.809-2.239-5.082-7.141-2.843-10.951c2.138-3.637,6.732-4.989,10.499-3.089c46.371,25.2,75.252,73.736,75.28,126.512
		C352,244.418,348.418,248,344,248z"/>
	<path style="fill:#231F20;" d="M240,115.808c-0.637,0.001-1.271-0.077-1.888-0.232c-9.86-2.379-19.969-3.58-30.112-3.576
		c-4.418,0-8-3.582-8-8s3.582-8,8-8c11.414-0.012,22.79,1.331,33.888,4c4.313,0.959,7.032,5.232,6.074,9.545
		C247.136,113.261,243.806,115.88,240,115.808z"/>
	<path style="fill:#231F20;" d="M143.096,367.496c-1.334-0.003-2.647-0.341-3.816-0.984C92.909,341.312,64.028,292.776,64,240
		c0-4.418,3.582-8,8-8s8,3.582,8,8c0.033,46.919,25.712,90.067,66.936,112.472c3.879,2.115,5.31,6.974,3.195,10.853
		C148.727,365.9,146.028,367.5,143.096,367.496L143.096,367.496z"/>
	<path style="fill:#231F20;" d="M208,384c-11.414,0.012-22.79-1.331-33.888-4c-4.32-0.925-7.073-5.177-6.148-9.497
		c0.925-4.32,5.177-7.073,9.497-6.148c0.141,0.03,0.28,0.064,0.419,0.102c9.864,2.369,19.975,3.559,30.12,3.544c4.418,0,8,3.582,8,8
		S212.418,384,208,384z"/>
	<path style="fill:#231F20;" d="M272,32h-64C93.125,32,0,125.125,0,240s93.125,208,208,208h64c114.822-0.128,207.872-93.178,208-208
		C480,96.528,358.4,32,272,32z M16,240c0-106.039,85.961-192,192-192s192,85.961,192,192s-85.961,192-192,192
		C102.013,431.877,16.123,345.987,16,240z M289.984,431.128c105.558-45.241,154.454-167.488,109.213-273.046
		C378.226,109.151,339.286,70.126,290.4,49.048C367.896,57.352,464,117.472,464,240
		C463.869,339.016,388.554,421.738,289.984,431.128z"/>
	<path style="fill:#231F20;" d="M240,312h-24V160c-0.001-4.418-3.583-7.999-8.002-7.998c-2.121,0-4.155,0.843-5.654,2.342l-36,36
		c-3.069,3.178-2.981,8.243,0.197,11.312c3.1,2.994,8.015,2.994,11.115,0L200,179.312V312h-24c-4.418,0-8,3.582-8,8s3.582,8,8,8h64
		c4.418,0,8-3.582,8-8S244.418,312,240,312L240,312z"/>
</g>
<g>
</g>
<g>
</g>
<g>
</g>
<g>
</g>
<g>
</g>
<g>
</g>
<g>
</g>
<g>
</g>
<g>
</g>
<g>
</g>
<g>
</g>
<g>
</g>
<g>
</g>
<g>
</g>
<g>
</g>
</svg>
